<?xml version="1.0" encoding="UTF-8"?>
<svg width="106" height="69" viewBox="0 0 106 69" fill="none" xmlns="http://www.w3.org/2000/svg">
<g transform="scale(0.52, 0.54)">
<path d="M0 0 C-0.23388428 0.98097656 -0.46776855 1.96195312 -0.70874023 2.97265625 C-1.64904535 8.10213221 -2.48010074 13.26623584 0.09393311 18.02050781 C3.78128595 22.9201985 8.38031312 26.9318003 12.9375 31 C14.29486196 32.27194945 15.6484228 33.54796808 16.99804688 34.828125 C20.29002966 37.93411788 23.62870181 40.98037598 27 44 C24.74295809 47.99056418 22.55673714 51.80149961 19.75 55.4375 C19.22921875 56.11683594 18.7084375 56.79617187 18.171875 57.49609375 C17.78515625 57.99238281 17.3984375 58.48867188 17 59 C14.36874324 58.02267606 12.15261753 57.11186331 9.87890625 55.4453125 C5.91709091 53.45634143 2.49044039 53.68348354 -1.875 53.6875 C-11.63060657 53.46973221 -11.63060657 53.46973221 -15.625 49.9375 C-16.40875 48.968125 -17.1925 47.99875 -18 47 C-21.27519435 53.19464866 -21.27519435 53.19464866 -21 60 C-17.81733809 63.45218463 -14.08616037 65.97449788 -10.19189453 68.54785156 C-7.73829855 70.1733794 -5.32021053 71.8452545 -2.90234375 73.5234375 C1.70948886 76.71571461 6.34637842 79.86901917 11 83 C10.25465483 87.77020911 8.78495892 91.24010954 7 96 C-11.48 96 -29.96 96 -49 96 C-55.3116739 79.58964787 -58.7768533 59.87912854 -52.25390625 42.7421875 C-51.84011719 41.83726563 -51.42632812 40.93234375 -51 40 C-50.36384766 38.58074219 -50.36384766 38.58074219 -49.71484375 37.1328125 C-40.59469887 18.79090552 -24.18085587 11.36301112 -6.83984375 2.37890625 C-5.51521118 1.69163452 -5.51521118 1.69163452 -4.16381836 0.99047852 C-2 0 -2 0 0 0 Z " fill="currentColor" transform="translate(82,5)"/>
<path d="M0 0 C22.44 0 44.88 0 68 0 C68 4.95 68 9.9 68 15 C45.56 15 23.12 15 0 15 C0 10.05 0 5.1 0 0 Z " fill="currentColor" transform="translate(29,107)"/>
<path d="M0 0 C5.75 3.75 5.75 3.75 8 6 C9.90100201 6.33584186 9.90100201 6.33584186 12.0625 6.34375 C12.85914062 6.37339844 13.65578125 6.40304688 14.4765625 6.43359375 C15.72566406 6.46646484 15.72566406 6.46646484 17 6.5 C18.64608735 6.54331809 20.29198197 6.59500904 21.9375 6.65625 C23.03384766 6.68428711 23.03384766 6.68428711 24.15234375 6.71289062 C26 7 26 7 28 9 C24.48870858 10.75564571 20.5401247 10.02394906 16.6875 9.875 C15.83220703 9.8646875 14.97691406 9.854375 14.09570312 9.84375 C9.85483881 9.67293285 6.98868629 9.53619562 3.89453125 6.4453125 C3.26933594 5.63835938 2.64414063 4.83140625 2 4 C1.34 4.66 0.68 5.32 0 6 C-1.125 2.25 -1.125 2.25 0 0 Z " fill="currentColor" transform="translate(63,51)"/>
<path d="M0 0 C-1.29299694 2.88437779 -2.65941363 4.87219421 -5 7 C-5.99 6.67 -6.98 6.34 -8 6 C-7.0479279 4.99403703 -6.08812654 3.99538437 -5.125 3 C-4.59132812 2.443125 -4.05765625 1.88625 -3.5078125 1.3125 C-2 0 -2 0 0 0 Z " fill="currentColor" transform="translate(48,24)"/>
</g>
</svg>
